<?xml version="1.0" encoding="iso-8859-1"?>
<!-- Generator: Adobe Illustrator 19.0.0, SVG Export Plug-In . SVG Version: 6.00 Build 0)  -->
<svg version="1.1" id="Capa_1" xmlns="http://www.w3.org/2000/svg" xmlns:xlink="http://www.w3.org/1999/xlink" x="0px" y="0px"
	 viewBox="0 0 512.1 512.1" style="enable-background:new 0 0 512.1 512.1;" xml:space="preserve">
<g>
	<g>
		<path d="M469.3,277.35H42.7c-23.5,0-42.7,19.1-42.7,42.7v85.3c0,23.5,19.1,42.7,42.7,42.7h426.7c23.5,0,42.7-19.1,42.7-42.7v-85.3
			C512,296.55,492.9,277.35,469.3,277.35z M128,320.05c11.8,0,21.3,9.6,21.3,21.3c0,11.7-9.6,21.3-21.3,21.3s-21.3-9.6-21.3-21.3
			C106.7,329.65,116.2,320.05,128,320.05z M64,320.05c11.8,0,21.3,9.6,21.3,21.3c0,11.7-9.6,21.3-21.3,21.3s-21.3-9.6-21.3-21.3
			C42.7,329.65,52.2,320.05,64,320.05z M458.7,405.35H53.3c-5.9,0-10.7-4.8-10.7-10.7s4.8-10.6,10.7-10.6h405.3
			c5.9,0,10.7,4.8,10.7,10.7S464.6,405.35,458.7,405.35z"/>
	</g>
</g>
<g>
	<g>
		<path d="M486.2,258.65l-85.1-170.2c-0.2-0.4-0.4-0.7-0.6-1.1c-7.3-14.2-22-23.3-37.9-23.3H149.3c-15.8,0-30.5,9-37.8,23.1
			c-0.3,0.4-0.5,0.8-0.7,1.2l-85.1,170.2c5.4-1.5,11-2.6,16.9-2.6h426.7v0.1C475.2,256.05,480.8,257.15,486.2,258.65z"/>
	</g>
</g>
<g>
</g>
<g>
</g>
<g>
</g>
<g>
</g>
<g>
</g>
<g>
</g>
<g>
</g>
<g>
</g>
<g>
</g>
<g>
</g>
<g>
</g>
<g>
</g>
<g>
</g>
<g>
</g>
<g>
</g>
</svg>
